<svg width="19" height="19" viewBox="0 0 19 19" fill="none" xmlns="http://www.w3.org/2000/svg">
<path fill-rule="evenodd" clip-rule="evenodd" d="M17.7556 9.21278C18.0519 8.7369 18.2157 8.18923 18.2298 7.62743C18.2438 7.06563 18.1075 6.51041 17.8354 6.02008C17.5632 5.52975 17.1652 5.12244 16.6831 4.84095C16.201 4.55946 15.6526 4.41424 15.0956 4.42045H14.8581V4.29584C14.8536 3.39748 14.4959 2.53761 13.8636 1.90506C13.2313 1.27251 12.376 0.918965 11.4856 0.922023C11.0147 0.920131 10.5489 1.02013 10.1195 1.21523C9.69016 1.41032 9.30727 1.69592 8.99661 2.05295C8.40978 1.62769 7.70513 1.39973 6.98261 1.40126C6.21475 1.39073 5.46895 1.66033 4.88245 2.16047C4.29596 2.66062 3.90824 3.35763 3.79063 4.12327C3.28506 4.34111 2.85326 4.70276 2.54793 5.16399C2.24259 5.62522 2.07693 6.16618 2.07113 6.72079C2.06134 6.92062 2.08054 7.12081 2.12813 7.31504C1.45701 7.5287 0.880145 7.97066 0.495952 8.56554C0.111758 9.16041 -0.0559308 9.87129 0.0214154 10.577C0.0987616 11.2827 0.416367 11.9395 0.9201 12.4353C1.42383 12.9311 2.08245 13.2353 2.78363 13.2959C2.93042 13.828 3.24769 14.2962 3.68591 14.6273C4.12413 14.9585 4.65865 15.134 5.20612 15.1264C5.59538 15.1232 5.9788 15.031 6.32763 14.8566C6.67646 14.6823 6.98162 14.4305 7.22011 14.1201C7.93261 15.069 8.04661 16.3054 8.04661 18.3182C8.04253 18.3982 8.0553 18.4781 8.08406 18.5527C8.11283 18.6273 8.15693 18.6948 8.21348 18.751C8.27003 18.8071 8.33774 18.8506 8.41214 18.8784C8.48653 18.9062 8.56595 18.9178 8.64511 18.9125H11.1912C11.2684 18.9151 11.3453 18.9 11.416 18.8685C11.4868 18.8369 11.5495 18.7897 11.5996 18.7303C11.7111 18.6221 11.7759 18.4742 11.7802 18.3182C11.6805 17.1178 11.9036 15.9125 12.4261 14.8294C12.6066 14.8294 12.7301 14.8868 12.9011 14.8868C13.6775 14.8738 14.4283 14.6046 15.0386 14.1201C15.3968 14.2613 15.7755 14.3423 16.1596 14.3597C16.9104 14.362 17.6314 14.0634 18.164 13.5296C18.6967 12.9958 18.9974 12.2706 19.0001 11.5131C18.9605 11.064 18.8295 10.6279 18.6154 10.2321C18.4012 9.83632 18.1085 9.48939 17.7556 9.21278ZM10.5356 17.791H9.17717C9.17717 15.7782 8.93967 14.2351 7.63817 12.8741V12.5194C8.27192 12.6415 8.92691 12.5818 9.52866 12.347C9.64323 12.7825 9.84356 13.1903 10.1178 13.546C10.392 13.9017 10.7344 14.1979 11.1246 14.4172C10.7867 15.5119 10.5888 16.6457 10.5356 17.791ZM16.1026 13.1137C15.7912 13.1001 15.4866 13.0184 15.2096 12.8741C15.0595 12.7733 14.9222 12.6542 14.8011 12.5194C14.6978 12.4035 14.5571 12.3284 14.404 12.3073C14.2509 12.2863 14.0954 12.3207 13.9651 12.4044C13.8485 12.5034 13.7724 12.6423 13.7514 12.7945C13.7303 12.9467 13.7658 13.1014 13.8511 13.2287C13.9064 13.2941 13.9668 13.3551 14.0317 13.4109C13.7 13.6437 13.3051 13.7675 12.9011 13.7655C12.3566 13.7606 11.8355 13.5414 11.4487 13.1548C11.0619 12.7681 10.84 12.2444 10.8302 11.6952V11.4556C10.8786 10.987 11.0868 10.55 11.4192 10.2191C11.5288 10.1085 11.5903 9.95861 11.5903 9.80223C11.5903 9.64585 11.5288 9.49582 11.4192 9.38524C11.3096 9.27466 11.1608 9.21255 11.0058 9.21255C10.8508 9.21255 10.7023 9.27466 10.5927 9.38524C10.1283 9.85034 9.81933 10.4502 9.70911 11.1009C9.34951 11.3593 8.91444 11.4883 8.47348 11.4675C8.03252 11.4466 7.61124 11.2771 7.27717 10.9859C7.07618 10.809 6.91468 10.591 6.80333 10.3465C6.69197 10.102 6.63324 9.8365 6.63112 9.56741C6.64059 9.36483 6.67898 9.16469 6.74511 8.97317C6.77169 8.89587 6.78206 8.81382 6.77561 8.73226C6.76916 8.6507 6.74605 8.57138 6.70765 8.49931C6.66926 8.42725 6.61647 8.36394 6.55261 8.31352C6.48874 8.26309 6.41524 8.22662 6.33668 8.20635C6.25943 8.17946 6.17751 8.16892 6.09605 8.17534C6.01458 8.18176 5.93524 8.20501 5.86307 8.24367C5.79089 8.28233 5.72739 8.33549 5.67648 8.39998C5.62556 8.46447 5.58833 8.53892 5.56712 8.61854C5.46194 8.92295 5.41989 9.24592 5.44362 9.56741C5.44149 10.0008 5.53008 10.4297 5.70361 10.8261C5.87715 11.2225 6.13176 11.5775 6.45067 11.8678C6.61041 12.0941 6.69368 12.3662 6.68817 12.644C6.69077 12.8243 6.65731 13.0033 6.58983 13.1702C6.52236 13.3371 6.42219 13.4887 6.29539 13.6157C6.16859 13.7428 6.01775 13.8426 5.85182 13.9095C5.68588 13.9764 5.50827 14.009 5.32962 14.0051C5.07094 14.0063 4.81714 13.9341 4.59712 13.7969C4.3771 13.6596 4.1997 13.4627 4.08512 13.2287C4.4165 13.1288 4.73529 12.9906 5.03512 12.8166C5.10468 12.7771 5.16429 12.7218 5.20925 12.6553C5.25421 12.5887 5.28334 12.5126 5.29437 12.4329C5.3054 12.3531 5.29804 12.2719 5.27286 12.1955C5.24767 12.119 5.2053 12.0496 5.14912 11.9924C5.10871 11.9225 5.05328 11.8626 4.98688 11.8172C4.92048 11.7718 4.84483 11.742 4.7655 11.73C4.68618 11.7181 4.60523 11.7242 4.52858 11.7481C4.45193 11.7719 4.38152 11.8128 4.32262 11.8678C4.03682 12.0983 3.68154 12.2234 3.31563 12.2224H3.19212C2.67926 12.2212 2.18749 12.0163 1.82308 11.6522C1.45866 11.2882 1.25087 10.7941 1.24463 10.2767C1.25036 9.80254 1.42874 9.34712 1.74584 8.99715C2.06294 8.64718 2.49659 8.42713 2.96413 8.37892C3.30752 8.31663 3.66164 8.38122 3.96162 8.56097C4.03236 8.60599 4.11584 8.62626 4.19912 8.61854C4.31306 8.62124 4.42514 8.58868 4.52023 8.52529C4.61533 8.4619 4.68889 8.37072 4.73112 8.26391C4.76255 8.19418 4.77991 8.11877 4.78208 8.04219C4.78426 7.96562 4.77119 7.88945 4.74376 7.81802C4.71632 7.74659 4.67503 7.68136 4.62228 7.62626C4.56954 7.57116 4.50642 7.52724 4.43662 7.49709C4.06282 7.33336 3.66482 7.23303 3.25863 7.20003C3.20053 7.07106 3.17757 6.92874 3.19212 6.78783C3.19353 6.41938 3.31671 6.06194 3.54211 5.77204C3.76751 5.48213 4.08226 5.27628 4.43662 5.18715C4.65743 5.12555 4.88918 5.11512 5.11456 5.15662C5.33994 5.19811 5.55316 5.29045 5.73817 5.42677C5.83677 5.39317 5.94352 5.39317 6.04212 5.42677C6.1374 5.41763 6.22924 5.38596 6.31012 5.33434C6.391 5.28272 6.45862 5.21265 6.50761 5.12971C6.55329 5.0645 6.58516 4.99048 6.60131 4.91232C6.61747 4.83415 6.61758 4.75347 6.60154 4.67528C6.58551 4.59709 6.55376 4.52305 6.50819 4.45777C6.46262 4.39249 6.40425 4.33741 6.33668 4.29584C5.93462 4.01751 5.45612 3.87331 4.96862 3.88365C5.12625 3.48793 5.39593 3.14781 5.74397 2.90576C6.09201 2.66372 6.50303 2.53054 6.92567 2.5227C7.22996 2.5313 7.52905 2.60384 7.80389 2.73588C8.07873 2.86792 8.3232 3.05648 8.52161 3.28941C8.65455 3.47941 8.77514 3.6779 8.88261 3.88365C8.92484 3.99046 8.99846 4.08176 9.09356 4.14515C9.18865 4.20854 9.30072 4.24099 9.41467 4.23828C9.49745 4.24032 9.57932 4.22056 9.65217 4.18083C9.79713 4.123 9.91445 4.01107 9.97989 3.86832C10.0453 3.72558 10.0539 3.56291 10.0037 3.41401C9.94666 3.2319 9.82316 3.05944 9.76616 2.87733C9.9739 2.61948 10.236 2.41165 10.5335 2.26905C10.831 2.12644 11.1563 2.05256 11.4856 2.05295C11.7715 2.0508 12.055 2.10582 12.3199 2.21464C12.5847 2.32347 12.8256 2.48399 13.0287 2.68709C13.2317 2.89019 13.393 3.13177 13.5032 3.39798C13.6134 3.6642 13.6703 3.94979 13.6706 4.23828C13.6606 4.47842 13.6223 4.71649 13.5567 4.94754C13.4135 5.40783 13.1295 5.81059 12.7456 6.09812C12.3616 6.38565 11.8973 6.54324 11.4192 6.54822C11.3407 6.54378 11.2621 6.55608 11.1886 6.58437C11.1152 6.61266 11.0485 6.65628 10.9929 6.71237C10.9373 6.76846 10.894 6.83575 10.866 6.90986C10.8379 6.98397 10.8258 7.06326 10.8302 7.14246C10.8259 7.22119 10.8383 7.2999 10.8666 7.37342C10.8948 7.44694 10.9382 7.51352 10.9939 7.56881C11.0496 7.62411 11.1163 7.66683 11.1897 7.69412C11.263 7.7214 11.3412 7.73267 11.4192 7.72711C12.0724 7.73821 12.7141 7.55268 13.2623 7.19418C13.8106 6.83567 14.2404 6.32048 14.4971 5.71436C14.6709 5.6487 14.8534 5.60993 15.0386 5.59934C15.5524 5.60283 16.0444 5.80967 16.4086 6.17534C16.7728 6.541 16.9802 7.03629 16.9861 7.55465C16.9967 7.95761 16.8729 8.3524 16.6346 8.67598C16.4393 8.6256 16.2374 8.60626 16.0361 8.61854C15.9576 8.6141 15.8791 8.6264 15.8056 8.65469C15.7321 8.68298 15.6654 8.7266 15.6098 8.78269C15.5542 8.83878 15.511 8.90608 15.483 8.98019C15.4549 9.0543 15.4427 9.13358 15.4471 9.21278C15.4429 9.29151 15.4553 9.37022 15.4836 9.44374C15.5118 9.51726 15.5552 9.58384 15.6109 9.63913C15.6666 9.69443 15.7333 9.73715 15.8066 9.76444C15.88 9.79172 15.9582 9.80299 16.0361 9.79743C16.2403 9.81119 16.4417 9.85312 16.6346 9.92204C16.9495 10.032 17.2218 10.2395 17.4129 10.5149C17.604 10.7903 17.704 11.1195 17.6986 11.4556C17.7046 11.6709 17.6677 11.8853 17.5902 12.0861C17.5127 12.2868 17.3962 12.4698 17.2474 12.6244C17.0986 12.7789 16.9207 12.9019 16.7241 12.9859C16.5274 13.07 16.3161 13.1134 16.1026 13.1137Z" fill="#70C029"/>
</svg>
