<svg width="16" height="14" fill="none" xmlns="http://www.w3.org/2000/svg"><mask id="a" fill="#fff"><path d="M14.833 1.375A4.071 4.071 0 0011.75 0c-1.686 0-2.753.997-3.352 1.834a5.827 5.827 0 00-.213.32.22.22 0 01-.37 0 5.82 5.82 0 00-.213-.32C7.003.997 5.936 0 4.25 0a4.072 4.072 0 00-3.083 1.375C.415 2.221 0 3.355 0 4.565c0 1.32.52 2.546 1.636 3.86.997 1.175 2.432 2.386 4.094 3.789.619.522 1.26 1.063 1.94 1.653l.021.018a.47.47 0 00.618 0l.02-.018c.682-.59 1.322-1.13 1.941-1.653 1.662-1.403 3.097-2.614 4.094-3.789C15.48 7.111 16 5.885 16 4.565c0-1.21-.415-2.344-1.167-3.19z"/></mask><path d="M14.833 1.375A4.071 4.071 0 0011.75 0c-1.686 0-2.753.997-3.352 1.834a5.827 5.827 0 00-.213.32.22.22 0 01-.37 0 5.82 5.82 0 00-.213-.32C7.003.997 5.936 0 4.25 0a4.072 4.072 0 00-3.083 1.375C.415 2.221 0 3.355 0 4.565c0 1.32.52 2.546 1.636 3.86.997 1.175 2.432 2.386 4.094 3.789.619.522 1.26 1.063 1.94 1.653l.021.018a.47.47 0 00.618 0l.02-.018c.682-.59 1.322-1.13 1.941-1.653 1.662-1.403 3.097-2.614 4.094-3.789C15.48 7.111 16 5.885 16 4.565c0-1.21-.415-2.344-1.167-3.19z" stroke="#FB5B1D" stroke-width="4" mask="url(#a)"/></svg>