<svg width="16" height="14" viewBox="0 0 16 14" fill="none" xmlns="http://www.w3.org/2000/svg">
<mask id="path-1-inside-1" fill="white">
<path d="M14.8326 1.37528C14.0435 0.488407 12.9487 0 11.75 0C10.0641 0 8.99678 0.997241 8.39828 1.83385C8.32169 1.94093 8.25073 2.04815 8.18518 2.15391C8.10149 2.28894 7.89852 2.28893 7.81483 2.1539C7.74928 2.04815 7.67833 1.94093 7.60172 1.83385C7.00322 0.997241 5.93587 0 4.25 0C3.05131 0 1.95653 0.488438 1.16734 1.37531C0.414594 2.22132 0 3.35438 0 4.56574C0 5.88434 0.519781 7.11077 1.63578 8.42532C2.63319 9.60022 4.06809 10.8113 5.72969 12.2136C6.34884 12.7362 6.98912 13.2766 7.67078 13.8673L7.69125 13.8851C7.77962 13.9617 7.88981 14 8 14C8.11019 14 8.22038 13.9617 8.30875 13.8851L8.32922 13.8673C9.01087 13.2766 9.65116 12.7362 10.2704 12.2136C11.9319 10.8113 13.3668 9.60026 14.3642 8.42532C15.4802 7.11074 16 5.88434 16 4.56574C16 3.35438 15.5854 2.22132 14.8326 1.37528Z"/>
</mask>
<path d="M14.8326 1.37528C14.0435 0.488407 12.9487 0 11.75 0C10.0641 0 8.99678 0.997241 8.39828 1.83385C8.32169 1.94093 8.25073 2.04815 8.18518 2.15391C8.10149 2.28894 7.89852 2.28893 7.81483 2.1539C7.74928 2.04815 7.67833 1.94093 7.60172 1.83385C7.00322 0.997241 5.93587 0 4.25 0C3.05131 0 1.95653 0.488438 1.16734 1.37531C0.414594 2.22132 0 3.35438 0 4.56574C0 5.88434 0.519781 7.11077 1.63578 8.42532C2.63319 9.60022 4.06809 10.8113 5.72969 12.2136C6.34884 12.7362 6.98912 13.2766 7.67078 13.8673L7.69125 13.8851C7.77962 13.9617 7.88981 14 8 14C8.11019 14 8.22038 13.9617 8.30875 13.8851L8.32922 13.8673C9.01087 13.2766 9.65116 12.7362 10.2704 12.2136C11.9319 10.8113 13.3668 9.60026 14.3642 8.42532C15.4802 7.11074 16 5.88434 16 4.56574C16 3.35438 15.5854 2.22132 14.8326 1.37528Z" stroke="#FB5B1D" stroke-width="4" mask="url(#path-1-inside-1)"/>
</svg>
