<svg width="20" height="20" fill="none" xmlns="http://www.w3.org/2000/svg"><path d="M16.153 18.738l.02-.02 2.787-2.767a1.194 1.194 0 00-.019-.012l-3.84-2.27h-.025l-.202-.121a.642.642 0 00-.092-.006.294.294 0 00-.206.07L13.4 14.811l-.006.006h0a1.34 1.34 0 01-.528.316h0-.002a1.452 1.452 0 01-.452.083h-.1l-.097-.02-.264-.052c-.319-.064-.676-.221-1.021-.398-.399-.203-.86-.502-1.373-.876h0c-.553-.403-1.158-.948-1.812-1.616-.668-.655-1.21-1.258-1.606-1.805a10.331 10.331 0 01-.864-1.373c-.224-.432-.393-.863-.473-1.283L4.784 7.7v-.094c0-.194.045-.362.083-.475a1.34 1.34 0 01.315-.529s0 0 0 0L6.22 5.564a.324.324 0 00.093-.215v-.001a.077.077 0 00-.004-.006l-.006-.012-.007-.012-2.242-4.256a.55.55 0 00-.006-.008L1.283 3.82l-.02.019-.019.017a.605.605 0 00-.128.19 1.13 1.13 0 00-.094.27l-.02.378c-.008.15.007.417.074.837.06.378.178.855.366 1.44.176.545.447 1.177.824 1.897h0c.367.701.86 1.482 1.488 2.342.61.837 1.392 1.729 2.35 2.675l.01.009h0c1.208 1.222 2.325 2.16 3.35 2.832h0c1.069.698 1.997 1.205 2.79 1.534h0c.83.344 1.48.538 1.97.613.596.091.965.126 1.15.126.096 0 .152-.003.177-.006l.602-.256zm0 0l-.018.021a.602.602 0 01-.189.128h0c-.11.054-.203.082-.28.097l-.105.01h-.01l.602-.256z" stroke="#F0AF3B" stroke-width="2"/></svg>