<svg width="40" height="40" viewBox="0 0 40 40" fill="none" xmlns="http://www.w3.org/2000/svg">
<circle cx="20" cy="20" r="20" fill="#F7F7F7"/>
<path d="M18.6481 24.0432C17.2126 23.8935 15.9183 23.54 14.8101 22.6733C14.6726 22.5654 14.5306 22.4615 14.4051 22.341C13.9201 21.8752 13.8712 21.3417 14.255 20.7919C14.5834 20.3214 15.1345 20.1955 15.7074 20.4656C15.8184 20.518 15.9241 20.5834 16.0253 20.6536C18.0906 22.0726 20.9277 22.1118 23.0007 20.7174C23.2061 20.5599 23.4256 20.4315 23.6801 20.366C24.1748 20.2389 24.6362 20.4207 24.9017 20.8535C25.205 21.3479 25.2011 21.8304 24.8274 22.2142C24.2541 22.8026 23.5647 23.2283 22.7986 23.5254C22.0743 23.8062 21.2809 23.9476 20.4956 24.0415C20.6141 24.1705 20.67 24.2339 20.744 24.3084C21.8103 25.3797 22.8812 26.4465 23.944 27.5211C24.3061 27.8873 24.3818 28.3413 24.1824 28.7672C23.9644 29.2327 23.4764 29.5389 22.998 29.5061C22.6949 29.4852 22.4585 29.3343 22.2484 29.1227C21.4438 28.313 20.624 27.5182 19.8356 26.6932C19.6062 26.4533 19.4958 26.4987 19.2934 26.707C18.4839 27.5403 17.6612 28.3609 16.8336 29.1768C16.4621 29.5432 16.0199 29.6091 15.5889 29.3998C15.1309 29.1778 14.8394 28.7102 14.8619 28.2403C14.8774 27.9224 15.0337 27.6796 15.2519 27.4618C16.3071 26.4081 17.3594 25.3517 18.4121 24.2963C18.4817 24.2261 18.5467 24.1517 18.6481 24.0432Z" fill="#EE8208"/>
<path d="M19.5227 20.3729C16.9617 20.3642 14.8617 18.2411 14.8767 15.6761C14.8914 13.0827 16.9927 10.9928 19.5789 11C22.1703 11.007 24.2503 13.1269 24.2373 15.7473C24.2241 18.3071 22.1096 20.3818 19.5227 20.3729ZM21.8501 15.6823C21.8457 14.4087 20.8314 13.3948 19.5603 13.3936C18.2785 13.3923 17.2551 14.4246 17.265 15.7098C17.2745 16.9786 18.2976 17.9853 19.5721 17.9807C20.8428 17.9762 21.8544 16.9557 21.8501 15.6823Z" fill="#EE8208"/>
</svg>
