<svg width="18" height="16" fill="none" xmlns="http://www.w3.org/2000/svg"><mask id="a" fill="#fff"><path d="M15.778.912c-1.288 0-2.334 1.243-2.737 1.929a.194.194 0 00-.02.15l.494 1.775a.2.2 0 00.193.146h.825a.205.205 0 00.187-.122c.207-.452.624-1.165 1.02-1.21a.302.302 0 00.074-.016c.647-.25 1.144-.194 1.502-.02.197.095.684-.08.684-.299V1.76a.376.376 0 00-.132-.304c-.299-.232-.974-.544-2.09-.544z"/></mask><path d="M15.778.912c-1.288 0-2.334 1.243-2.737 1.929a.194.194 0 00-.02.15l.494 1.775a.2.2 0 00.193.146h.825a.205.205 0 00.187-.122c.207-.452.624-1.165 1.02-1.21a.302.302 0 00.074-.016c.647-.25 1.144-.194 1.502-.02.197.095.684-.08.684-.299V1.76a.376.376 0 00-.132-.304c-.299-.232-.974-.544-2.09-.544z" fill="#FB5B1D"/><path d="M13.04 2.841l.862.507-.861-.507zm4.828-1.386l-.613.79.613-.79zm-.552 2.089l-.435.9.435-.9zm-1.502.02l-.36-.933.36.933zm-.075.017l.112.994-.112-.994zM14.72 4.79l-.91-.416.91.415zm-1.205-.025l.963-.268-.963.268zm-.493-1.775l-.964.268.964-.268zm.88.357c.155-.262.448-.651.818-.962.377-.316.74-.474 1.058-.474v-2c-.97 0-1.774.464-2.343.941a5.963 5.963 0 00-1.256 1.48l1.723 1.015zm1.876-1.436c.938 0 1.386.263 1.477.333l1.226-1.58c-.506-.392-1.409-.753-2.703-.753v2zM17 1.76v1.485h2V1.76h-2zm.752.883c-.638-.308-1.425-.348-2.298-.012l.72 1.866c.422-.162.627-.091.707-.053l.87-1.8zm-2.124-.056a1.581 1.581 0 00-.819.364 2.75 2.75 0 00-.451.483 5.328 5.328 0 00-.548.94l1.82.832c.085-.188.207-.41.33-.575a.827.827 0 01.115-.132c.022-.018-.056.057-.224.076l-.223-1.988zm-1.095 1.325h-.825v2h.825v-2zm-.055.586l-.492-1.775-1.928.536.493 1.774 1.927-.535zm-.77-.586a.8.8 0 01.77.586l-1.927.535a1.2 1.2 0 001.157.879v-2zm1.746-1.28a.764.764 0 01.174-.045l.223 1.988c.058-.007.182-.023.323-.078l-.72-1.866zM17 3.244a.79.79 0 01.237-.577c.066-.062.115-.08.12-.083a.201.201 0 01.062-.013c.013-.001.152-.016.332.071l-.87 1.801c.28.135.553.134.713.12a1.81 1.81 0 00.513-.125c.151-.061.335-.159.498-.312A1.21 1.21 0 0019 3.244h-2zm.255-1A.63.63 0 0117 1.76h2c0-.32-.109-.776-.519-1.094l-1.226 1.58zm-3.445 2.13a.794.794 0 01.723-.463v2c.49 0 .908-.292 1.097-.706l-1.82-.831zm-1.63-2.04a1.193 1.193 0 00-.12.925l1.927-.536a.807.807 0 01-.084.625L12.18 2.334z" fill="#FB5B1D" mask="url(#a)"/><path d="M12.423 2.726h.006a3.15 3.15 0 011.717.461l.486.372c.026.025.052.05.08.073l.005.005.03.03.403.531c.315.578.44 1.233.36 1.88a3.166 3.166 0 01-.854 1.793l-.024.025-.022.027a20.972 20.972 0 01-7.966 5.929 14.032 14.032 0 01-4.327 1.015c.883-.77 1.654-1.687 2.335-2.637 1.074-1.5 1.974-3.156 2.748-4.578l.006-.01V7.64l.038-.069h0c.51-.937.963-1.77 1.406-2.469.448-.707.838-1.196 1.19-1.485l.006-.005.005-.004a3.773 3.773 0 012.373-.883z" fill="#fff" stroke="#FB5B1D" stroke-width="2"/><path d="M9 4.912h2.527c.11 0 .2.09.2.2v1.462a.2.2 0 00.297.175l1.289-.71a.2.2 0 01.291.132L14 7.912" stroke="#FB5B1D"/></svg>