<svg width="19" height="19" fill="none" xmlns="http://www.w3.org/2000/svg"><path fill-rule="evenodd" clip-rule="evenodd" d="M17.756 9.213a3.15 3.15 0 00.08-3.193 3.116 3.116 0 00-1.153-1.179 3.08 3.08 0 00-1.587-.42h-.238v-.125a3.406 3.406 0 00-.994-2.39 3.346 3.346 0 00-2.378-.984 3.27 3.27 0 00-2.49 1.131 3.42 3.42 0 00-2.013-.652 3.17 3.17 0 00-2.1.76A3.222 3.222 0 003.79 4.122c-.506.218-.938.58-1.243 1.041A2.875 2.875 0 002.07 6.72c-.01.2.01.4.057.594a3.043 3.043 0 00-1.632 1.25 3.088 3.088 0 00.424 3.87c.504.496 1.162.8 1.864.86.146.533.464 1.001.902 1.332.438.332.973.507 1.52.5A2.58 2.58 0 007.22 14.12c.713.948.827 2.184.827 4.197a.571.571 0 00.365.56c.075.028.154.04.233.035h2.546a.51.51 0 00.409-.183.597.597 0 00.18-.412 6.75 6.75 0 01.646-3.489c.18 0 .304.058.475.058a3.532 3.532 0 002.138-.767c.358.141.736.222 1.12.24a2.82 2.82 0 002.005-.83A2.87 2.87 0 0019 11.513a3.302 3.302 0 00-1.244-2.3zm-7.22 8.578H9.177c0-2.013-.237-3.556-1.539-4.917v-.355a3.42 3.42 0 001.89-.172c.115.436.316.843.59 1.199.274.356.616.652 1.007.871a13.575 13.575 0 00-.59 3.374zm5.567-4.677a2.134 2.134 0 01-.893-.24 2.16 2.16 0 01-.409-.355.651.651 0 00-.836-.115.623.623 0 00-.114.825c.055.065.116.126.18.182a1.951 1.951 0 01-1.13.354 2.081 2.081 0 01-1.452-.61 2.117 2.117 0 01-.619-1.46v-.24a2.04 2.04 0 01.59-1.236.592.592 0 00-.414-1.006.581.581 0 00-.413.172 3.18 3.18 0 00-.884 1.716 1.959 1.959 0 01-2.432-.115 1.902 1.902 0 01-.646-1.419c.01-.202.048-.402.114-.594a.596.596 0 00-.192-.66.584.584 0 00-.216-.107.59.59 0 00-.66.194.603.603 0 00-.11.219 2.371 2.371 0 00-.123.948 3.101 3.101 0 001.007 2.3c.16.227.243.5.237.777a1.352 1.352 0 01-.393.972 1.328 1.328 0 01-.965.39 1.372 1.372 0 01-1.245-.777c.332-.1.65-.238.95-.412a.521.521 0 00.238-.622.523.523 0 00-.124-.203.539.539 0 00-.383-.262.531.531 0 00-.443.138 1.6 1.6 0 01-1.007.354h-.124a1.943 1.943 0 01-1.369-.57 1.978 1.978 0 01-.578-1.375 1.94 1.94 0 01.5-1.28c.318-.35.752-.57 1.22-.618a1.44 1.44 0 01.997.182.38.38 0 00.237.058.555.555 0 00.532-.355.58.58 0 00-.294-.767A3.678 3.678 0 003.259 7.2a.803.803 0 01-.067-.412c.002-.369.125-.726.35-1.016.226-.29.54-.496.895-.585a1.507 1.507 0 011.301.24.47.47 0 01.304 0 .606.606 0 00.466-.297.585.585 0 00-.171-.834 2.317 2.317 0 00-1.368-.412c.157-.396.427-.736.775-.978a2.14 2.14 0 011.182-.383 2.169 2.169 0 011.596.766c.133.19.253.389.36.595a.563.563 0 00.77.297.618.618 0 00.352-.767c-.057-.182-.18-.355-.238-.537a2.215 2.215 0 011.72-.824 2.153 2.153 0 011.543.634 2.19 2.19 0 01.642 1.551c-.01.24-.049.478-.114.71-.143.46-.428.863-.811 1.15a2.252 2.252 0 01-1.327.45.555.555 0 00-.553.362.567.567 0 00-.036.232.558.558 0 00.36.552.546.546 0 00.23.033 3.266 3.266 0 001.842-.533 3.309 3.309 0 001.235-1.48 1.86 1.86 0 01.542-.115c.513.004 1.005.21 1.37.576.364.366.571.861.577 1.38.01.403-.113.797-.351 1.121a1.926 1.926 0 00-.599-.057.554.554 0 00-.553.361.567.567 0 00-.036.233.56.56 0 00.36.551.547.547 0 00.23.033c.203.014.405.056.598.125.314.11.587.317.778.593.191.275.291.604.286.94a1.626 1.626 0 01-.452 1.17 1.6 1.6 0 01-1.144.489z" fill="#70C029"/></svg>