<svg width="40" height="40" fill="none" xmlns="http://www.w3.org/2000/svg"><circle cx="20" cy="20" r="20" fill="#F7F7F7"/><path d="M24.033 11h-8.066A4.973 4.973 0 0011 15.967v8.066A4.973 4.973 0 0015.967 29h8.066A4.973 4.973 0 0029 24.033v-8.066A4.973 4.973 0 0024.033 11zm3.37 13.033a3.374 3.374 0 01-3.37 3.37h-8.066a3.374 3.374 0 01-3.37-3.37v-8.066a3.374 3.374 0 013.37-3.37h8.066a3.374 3.374 0 013.37 3.37v8.066z" fill="url(#paint0_linear)"/><path d="M20 15.362A4.643 4.643 0 0015.362 20 4.643 4.643 0 0020 24.638 4.643 4.643 0 0024.638 20 4.643 4.643 0 0020 15.362zm0 7.679a3.045 3.045 0 01-3.041-3.04 3.045 3.045 0 013.04-3.042A3.045 3.045 0 0123.042 20 3.044 3.044 0 0120 23.041z" fill="url(#paint1_linear)"/><path d="M24.833 14.008a1.176 1.176 0 00-1.172 1.171c0 .308.126.61.344.828.218.217.52.343.828.343.308 0 .61-.126.828-.343a1.176 1.176 0 000-1.657 1.176 1.176 0 00-.828-.342z" fill="url(#paint2_linear)"/><defs><linearGradient id="paint0_linear" x1="11" y1="11" x2="22.385" y2="32.776" gradientUnits="userSpaceOnUse"><stop stop-color="#4366C9"/><stop offset=".187" stop-color="#AA38AB"/><stop offset=".548" stop-color="#F64F51"/><stop offset=".745" stop-color="#FF8E48"/><stop offset="1" stop-color="#FF7E45"/></linearGradient><linearGradient id="paint1_linear" x1="15.362" y1="15.362" x2="21.229" y2="26.584" gradientUnits="userSpaceOnUse"><stop stop-color="#4366C9"/><stop offset=".187" stop-color="#AA38AB"/><stop offset=".548" stop-color="#F64F51"/><stop offset=".745" stop-color="#FF8E48"/><stop offset="1" stop-color="#FF7E45"/></linearGradient><linearGradient id="paint2_linear" x1="23.661" y1="14.008" x2="25.143" y2="16.841" gradientUnits="userSpaceOnUse"><stop stop-color="#4366C9"/><stop offset=".187" stop-color="#AA38AB"/><stop offset=".548" stop-color="#F64F51"/><stop offset=".745" stop-color="#FF8E48"/><stop offset="1" stop-color="#FF7E45"/></linearGradient></defs></svg>