<svg width="40" height="40" fill="none" xmlns="http://www.w3.org/2000/svg"><circle cx="20" cy="20" r="20" fill="#F7F7F7"/><path d="M18.648 24.043c-1.435-.15-2.73-.503-3.838-1.37-.137-.108-.28-.211-.405-.332-.485-.466-.534-1-.15-1.55.328-.47.88-.596 1.452-.325.111.052.217.117.318.188 2.066 1.419 4.903 1.458 6.976.063a1.89 1.89 0 01.68-.351c.494-.127.955.055 1.22.488.304.494.3.976-.074 1.36-.573.589-1.262 1.014-2.028 1.311-.725.281-1.518.423-2.303.517.118.128.174.192.248.266 1.066 1.072 2.137 2.139 3.2 3.213.362.366.438.82.238 1.246-.218.466-.706.772-1.184.74-.303-.022-.54-.173-.75-.384-.804-.81-1.624-1.605-2.412-2.43-.23-.24-.34-.194-.543.014-.81.833-1.632 1.654-2.46 2.47-.37.366-.813.432-1.244.223-.458-.222-.75-.69-.727-1.16.015-.318.172-.56.39-.778 1.055-1.054 2.107-2.11 3.16-3.166.07-.07.135-.144.236-.253z" fill="#EE8208"/><path d="M19.523 20.373c-2.561-.009-4.661-2.132-4.646-4.697A4.694 4.694 0 0119.579 11c2.591.007 4.671 2.127 4.658 4.747-.013 2.56-2.127 4.635-4.714 4.626zm2.327-4.69a2.283 2.283 0 00-2.29-2.29 2.286 2.286 0 00-2.295 2.317 2.283 2.283 0 002.307 2.27 2.278 2.278 0 002.278-2.298z" fill="#EE8208"/></svg>