<svg width="40" height="40" fill="none" xmlns="http://www.w3.org/2000/svg"><circle cx="20" cy="20" r="20" fill="#F7F7F7"/><path d="M28.904 24.031a1.19 1.19 0 00-.06-.114c-.313-.548-.91-1.22-1.79-2.017l-.02-.018-.008-.01-.01-.008h-.01c-.4-.371-.652-.62-.758-.749-.194-.243-.238-.49-.132-.739.075-.189.357-.587.844-1.195.256-.323.459-.581.609-.776 1.08-1.4 1.55-2.294 1.406-2.683l-.056-.09c-.038-.056-.134-.106-.29-.152a1.515 1.515 0 00-.6-.022l-2.7.018a.359.359 0 00-.187.004l-.122.028-.047.023-.037.027a.412.412 0 00-.103.096.625.625 0 00-.094.16c-.294.736-.628 1.42-1.003 2.053a19.4 19.4 0 01-.637.981 4.74 4.74 0 01-.487.611c-.132.131-.25.236-.356.315-.107.08-.188.113-.244.1a7.06 7.06 0 01-.16-.036.614.614 0 01-.21-.224.982.982 0 01-.108-.355 3.823 3.823 0 01-.033-.37 7.56 7.56 0 01.005-.438c.006-.189.01-.317.01-.384 0-.23.004-.482.013-.752.01-.271.017-.486.024-.644.006-.158.009-.325.009-.502 0-.176-.011-.314-.033-.415a1.397 1.397 0 00-.098-.292.495.495 0 00-.192-.219 1.1 1.1 0 00-.314-.123 6.38 6.38 0 00-1.265-.119c-1.162-.012-1.91.061-2.24.22a1.25 1.25 0 00-.356.273c-.113.134-.128.207-.047.219.375.055.64.186.796.392l.057.11c.043.08.087.22.13.42.044.2.073.423.085.666a6.95 6.95 0 010 1.14c-.031.317-.06.563-.089.74a1.45 1.45 0 01-.239.63.16.16 0 01-.047.045.719.719 0 01-.253.046c-.087 0-.194-.043-.318-.128a2.223 2.223 0 01-.39-.352 4.694 4.694 0 01-.454-.625 10.808 10.808 0 01-.525-.949l-.15-.264c-.093-.17-.221-.419-.384-.744a14.14 14.14 0 01-.43-.945.604.604 0 00-.226-.292l-.047-.027a.645.645 0 00-.15-.078 1.014 1.014 0 00-.215-.059l-2.568.018c-.262 0-.44.058-.534.174l-.038.054a.29.29 0 00-.028.146c0 .067.019.15.056.247a29.76 29.76 0 001.223 2.482c.44.797.823 1.439 1.148 1.925.325.487.656.947.994 1.378.337.432.56.71.67.83.11.123.195.214.258.275l.234.218c.15.147.37.322.66.525.291.204.613.405.966.603.353.197.764.358 1.232.483.469.125.925.175 1.369.151h1.077c.219-.018.384-.085.497-.2l.037-.047a.596.596 0 00.07-.168.906.906 0 00.033-.251 2.932 2.932 0 01.061-.707c.047-.21.1-.368.16-.475a1.17 1.17 0 01.36-.401.617.617 0 01.075-.032c.15-.049.327-.002.53.141s.394.32.572.53c.178.21.392.445.642.707.25.261.468.456.656.584l.187.11c.125.072.288.14.488.2.2.061.374.076.524.046l2.4-.037c.237 0 .421-.038.552-.114.132-.076.21-.16.235-.25a.688.688 0 00.004-.311 1.12 1.12 0 00-.066-.242z" fill="#4A76A8"/></svg>