<svg width="40" height="40" viewBox="0 0 40 40" fill="none" xmlns="http://www.w3.org/2000/svg">
<circle cx="20" cy="20" r="20" fill="#F7F7F7"/>
<path d="M24.0326 11H15.9673C13.2283 11 11 13.2284 11 15.9674V24.0327C11 26.7718 13.2283 29.0001 15.9673 29.0001H24.0326C26.7718 29.0001 29.0001 26.7717 29.0001 24.0327V15.9674C29.0002 13.2284 26.7718 11 24.0326 11ZM27.4031 24.0327C27.4031 25.8911 25.8911 27.403 24.0327 27.403H15.9673C14.1089 27.4031 12.5971 25.8911 12.5971 24.0327V15.9674C12.5971 14.109 14.1089 12.5971 15.9673 12.5971H24.0326C25.891 12.5971 27.403 14.109 27.403 15.9674V24.0327H27.4031Z" fill="url(#paint0_linear)"/>
<path d="M19.9999 15.3621C17.4423 15.3621 15.3617 17.4427 15.3617 20.0002C15.3617 22.5576 17.4423 24.6382 19.9999 24.6382C22.5574 24.6382 24.638 22.5576 24.638 20.0002C24.638 17.4427 22.5574 15.3621 19.9999 15.3621ZM19.9999 23.041C18.3231 23.041 16.9587 21.6769 16.9587 20.0001C16.9587 18.3232 18.323 16.959 19.9999 16.959C21.6768 16.959 23.041 18.3232 23.041 20.0001C23.041 21.6769 21.6767 23.041 19.9999 23.041Z" fill="url(#paint1_linear)"/>
<path d="M24.8326 14.0078C24.5249 14.0078 24.2226 14.1324 24.0053 14.3506C23.7869 14.5678 23.6614 14.8702 23.6614 15.179C23.6614 15.4868 23.787 15.7891 24.0053 16.0073C24.2225 16.2245 24.5249 16.3502 24.8326 16.3502C25.1413 16.3502 25.4426 16.2245 25.6609 16.0073C25.8792 15.7891 26.0037 15.4867 26.0037 15.179C26.0037 14.8702 25.8792 14.5678 25.6609 14.3506C25.4437 14.1324 25.1413 14.0078 24.8326 14.0078Z" fill="url(#paint2_linear)"/>
<defs>
<linearGradient id="paint0_linear" x1="11" y1="11" x2="22.3849" y2="32.7762" gradientUnits="userSpaceOnUse">
<stop stop-color="#4366C9"/>
<stop offset="0.187041" stop-color="#AA38AB"/>
<stop offset="0.548138" stop-color="#F64F51"/>
<stop offset="0.745246" stop-color="#FF8E48"/>
<stop offset="1" stop-color="#FF7E45"/>
</linearGradient>
<linearGradient id="paint1_linear" x1="15.3617" y1="15.3621" x2="21.2287" y2="26.5843" gradientUnits="userSpaceOnUse">
<stop stop-color="#4366C9"/>
<stop offset="0.187041" stop-color="#AA38AB"/>
<stop offset="0.548138" stop-color="#F64F51"/>
<stop offset="0.745246" stop-color="#FF8E48"/>
<stop offset="1" stop-color="#FF7E45"/>
</linearGradient>
<linearGradient id="paint2_linear" x1="23.6614" y1="14.0078" x2="25.1429" y2="16.8415" gradientUnits="userSpaceOnUse">
<stop stop-color="#4366C9"/>
<stop offset="0.187041" stop-color="#AA38AB"/>
<stop offset="0.548138" stop-color="#F64F51"/>
<stop offset="0.745246" stop-color="#FF8E48"/>
<stop offset="1" stop-color="#FF7E45"/>
</linearGradient>
</defs>
</svg>
