<svg width="18" height="16" viewBox="0 0 18 16" fill="none" xmlns="http://www.w3.org/2000/svg">
<mask id="path-1-inside-1" fill="white">
<path d="M15.7778 0.911987C14.4902 0.911987 13.4444 2.15532 13.0406 2.84103C13.014 2.8863 13.0079 2.94036 13.0219 2.99098L13.5149 4.76552C13.5389 4.85208 13.6177 4.91199 13.7076 4.91199H14.5333C14.6141 4.91199 14.6865 4.86351 14.72 4.79007C14.9266 4.33777 15.3437 3.62518 15.7393 3.58083C15.7646 3.57799 15.7905 3.5735 15.8142 3.56434C16.4612 3.31477 16.9576 3.37048 17.3164 3.54385C17.5132 3.63895 18 3.46393 18 3.24532V1.75968C18 1.64271 17.9605 1.52722 17.8681 1.4555C17.5693 1.22366 16.8943 0.911987 15.7778 0.911987Z"/>
</mask>
<path d="M15.7778 0.911987C14.4902 0.911987 13.4444 2.15532 13.0406 2.84103C13.014 2.8863 13.0079 2.94036 13.0219 2.99098L13.5149 4.76552C13.5389 4.85208 13.6177 4.91199 13.7076 4.91199H14.5333C14.6141 4.91199 14.6865 4.86351 14.72 4.79007C14.9266 4.33777 15.3437 3.62518 15.7393 3.58083C15.7646 3.57799 15.7905 3.5735 15.8142 3.56434C16.4612 3.31477 16.9576 3.37048 17.3164 3.54385C17.5132 3.63895 18 3.46393 18 3.24532V1.75968C18 1.64271 17.9605 1.52722 17.8681 1.4555C17.5693 1.22366 16.8943 0.911987 15.7778 0.911987Z" fill="#FB5B1D"/>
<path d="M13.0406 2.84103L13.9023 3.34848H13.9023L13.0406 2.84103ZM17.8681 1.4555L17.255 2.2455L17.255 2.2455L17.8681 1.4555ZM17.3164 3.54385L16.8814 4.44425L16.8814 4.44425L17.3164 3.54385ZM15.8142 3.56434L15.4543 2.63135L15.4543 2.63135L15.8142 3.56434ZM15.7393 3.58083L15.8508 4.5746H15.8508L15.7393 3.58083ZM14.72 4.79007L13.8104 4.3746L14.72 4.79007ZM13.5149 4.76552L14.4784 4.49787L14.4784 4.49787L13.5149 4.76552ZM13.0219 2.99098L12.0584 3.25862L12.0584 3.25862L13.0219 2.99098ZM13.9023 3.34848C14.0571 3.08556 14.3496 2.69656 14.7204 2.3856C15.0972 2.06956 15.4593 1.91199 15.7778 1.91199V-0.0880127C14.8087 -0.0880127 14.0041 0.376087 13.4352 0.853137C12.8603 1.33527 12.4279 1.9108 12.1789 2.33359L13.9023 3.34848ZM15.7778 1.91199C16.7165 1.91199 17.1636 2.17462 17.255 2.2455L18.4812 0.665512C17.9751 0.272701 17.0721 -0.0880127 15.7778 -0.0880127V1.91199ZM17 1.75968V3.24532H19V1.75968H17ZM17.7515 2.64344C17.1138 2.33537 16.3269 2.29476 15.4543 2.63135L16.1741 4.49733C16.5955 4.33477 16.8013 4.40559 16.8814 4.44425L17.7515 2.64344ZM15.6279 2.58705C15.2616 2.62813 14.9832 2.80846 14.8092 2.95075C14.6264 3.10022 14.4757 3.27603 14.3578 3.43377C14.1215 3.74992 13.9315 4.10938 13.8104 4.3746L15.6296 5.20553C15.7151 5.01845 15.837 4.79547 15.9598 4.63117C16.0214 4.54867 16.0621 4.50975 16.0753 4.49901C16.0972 4.48107 16.0193 4.5557 15.8508 4.5746L15.6279 2.58705ZM14.5333 3.91199H13.7076V5.91199H14.5333V3.91199ZM14.4784 4.49787L13.9855 2.72334L12.0584 3.25862L12.5514 5.03316L14.4784 4.49787ZM13.7076 3.91199C14.0669 3.91199 14.3822 4.15162 14.4784 4.49787L12.5514 5.03316C12.6956 5.55254 13.1685 5.91199 13.7076 5.91199V3.91199ZM15.4543 2.63135C15.504 2.61217 15.5457 2.60175 15.5734 2.59598C15.6009 2.59024 15.621 2.58784 15.6279 2.58705L15.8508 4.5746C15.9089 4.56808 16.033 4.55175 16.1741 4.49733L15.4543 2.63135ZM17 3.24532C17 2.91389 17.1811 2.72036 17.2369 2.66803C17.3027 2.60633 17.352 2.58725 17.3569 2.58524C17.3668 2.58124 17.3842 2.57495 17.4186 2.57191C17.4321 2.57073 17.571 2.55623 17.7515 2.64344L16.8814 4.44425C17.1603 4.57901 17.4338 4.5783 17.5939 4.56422C17.775 4.54829 17.9509 4.50241 18.1071 4.43922C18.2584 4.37802 18.4416 4.28013 18.6048 4.1271C18.758 3.98345 19 3.68606 19 3.24532H17ZM17.255 2.2455C17.0296 2.07057 17 1.84452 17 1.75968H19C19 1.4409 18.8914 0.983866 18.4812 0.665511L17.255 2.2455ZM13.8104 4.3746C13.9324 4.10744 14.2058 3.91199 14.5333 3.91199V5.91199C15.0223 5.91199 15.4405 5.61958 15.6296 5.20553L13.8104 4.3746ZM12.1789 2.33359C12.0074 2.62481 11.9756 2.96039 12.0584 3.25862L13.9855 2.72334C14.0402 2.92033 14.0205 3.14779 13.9023 3.34848L12.1789 2.33359Z" fill="#FB5B1D" mask="url(#path-1-inside-1)"/>
<path d="M12.4232 2.72564L12.4232 2.72566L12.4294 2.72552C13.0383 2.71195 13.6354 2.87364 14.1461 3.18722L14.6324 3.55864C14.6576 3.5843 14.6842 3.60866 14.7119 3.63162C14.7133 3.63303 14.7151 3.63479 14.7172 3.63696L14.7467 3.66746L15.1498 4.19833C15.4649 4.77584 15.5901 5.4314 15.51 6.07769C15.4275 6.7441 15.1304 7.37208 14.656 7.87064L14.6318 7.89607L14.6095 7.92314C12.4864 10.4937 9.75422 12.5285 6.64425 13.8519C5.26691 14.4175 3.80507 14.76 2.31688 14.8672C3.2 14.0976 3.97132 13.1803 4.65217 12.2299C5.72575 10.7313 6.62627 9.07425 7.39931 7.65178L7.40504 7.64125L7.40517 7.641L7.44255 7.57228L7.44255 7.57227C7.95207 6.63532 8.40612 5.80131 8.84885 5.10333C9.29732 4.39629 9.68659 3.90736 10.0395 3.6177L10.045 3.61318L10.0504 3.60859C10.7064 3.05439 11.5463 2.73979 12.4232 2.72564Z" fill="white" stroke="#FB5B1D" stroke-width="2"/>
<path d="M9 4.91199H11.5273C11.6377 4.91199 11.7273 5.00153 11.7273 5.11199V6.57373C11.7273 6.72585 11.8904 6.82229 12.0237 6.74898L13.3129 6.03991C13.4294 5.97583 13.5748 6.04117 13.6043 6.17083L14 7.91199" stroke="#FB5B1D"/>
</svg>
