<svg width="14" height="15" viewBox="0 0 14 15" fill="none" xmlns="http://www.w3.org/2000/svg">
<path fill-rule="evenodd" clip-rule="evenodd" d="M7.00041 8.98222C4.33371 8.98222 2.17192 11.144 2.17192 13.8107C2.17192 14.3183 1.76043 14.7298 1.25283 14.7298C0.74523 14.7298 0.33374 14.3183 0.33374 13.8107C0.33374 10.1288 3.31851 7.14404 7.00041 7.14404C10.6823 7.14404 13.6671 10.1288 13.6671 13.8107C13.6671 14.3183 13.2556 14.7298 12.748 14.7298C12.2404 14.7298 11.8289 14.3183 11.8289 13.8107C11.8289 11.144 9.66711 8.98222 7.00041 8.98222Z" fill="#E6E6E6"/>
<path fill-rule="evenodd" clip-rule="evenodd" d="M7.00213 6.76862C8.10313 6.76862 8.99567 5.87608 8.99567 4.77508C8.99567 3.67408 8.10313 2.78154 7.00213 2.78154C5.90113 2.78154 5.00859 3.67408 5.00859 4.77508C5.00859 5.87608 5.90113 6.76862 7.00213 6.76862ZM7.00213 8.6068C9.11833 8.6068 10.8338 6.89128 10.8338 4.77508C10.8338 2.65888 9.11833 0.943359 7.00213 0.943359C4.88593 0.943359 3.17041 2.65888 3.17041 4.77508C3.17041 6.89128 4.88593 8.6068 7.00213 8.6068Z" fill="#E6E6E6"/>
</svg>
