<svg width="27" height="19" viewBox="0 0 27 19" fill="none" xmlns="http://www.w3.org/2000/svg">
<rect x="1" y="1" width="25" height="17" rx="1" stroke="#F0AF3B" stroke-width="2"/>
<path d="M5.57668 4.18303C5.12548 3.86454 4.50153 3.97212 4.18303 4.42332C3.86454 4.87452 3.97212 5.49847 4.42332 5.81697L5.57668 4.18303ZM22.5767 5.81697C23.0279 5.49847 23.1355 4.87452 22.817 4.42332C22.4985 3.97212 21.8745 3.86454 21.4233 4.18303L22.5767 5.81697ZM12.9233 10.5929L12.3466 11.4099L12.9233 10.5929ZM4.42332 5.81697L12.3466 11.4099L13.5 9.77596L5.57668 4.18303L4.42332 5.81697ZM14.6534 11.4099L22.5767 5.81697L21.4233 4.18303L13.5 9.77596L14.6534 11.4099ZM12.3466 11.4099C13.0381 11.898 13.9619 11.898 14.6534 11.4099L13.5 9.77596L12.3466 11.4099Z" fill="#F0AF3B"/>
</svg>
